<svg xmlns="http://www.w3.org/2000/svg" xmlns:xlink="http://www.w3.org/1999/xlink" width="500" zoomAndPan="magnify" viewBox="0 0 375 374.999991" height="500" preserveAspectRatio="xMidYMid meet" version="1.0"><defs><g/><clipPath id="bb27c983c7"><rect x="0" width="237" y="0" height="38"/></clipPath><clipPath id="1531ae1813"><path d="M 215.824219 135 L 308.824219 135 L 308.824219 170.863281 L 215.824219 170.863281 Z M 215.824219 135 " clip-rule="nonzero"/></clipPath></defs><g transform="matrix(1, 0, 0, 1, 69, 174)"><g clip-path="url(#bb27c983c7)"><g fill="#ffffff" fill-opacity="1"><g transform="translate(0.824261, 29.384752)"><g><path d="M 14.34375 0.640625 C 12.320312 0.640625 10.457031 0.292969 8.75 -0.390625 C 7.050781 -1.078125 5.578125 -2.035156 4.328125 -3.265625 C 3.085938 -4.492188 2.125 -5.945312 1.4375 -7.625 C 0.75 -9.3125 0.40625 -11.148438 0.40625 -13.140625 C 0.40625 -15.128906 0.75 -16.957031 1.4375 -18.625 C 2.125 -20.300781 3.085938 -21.75 4.328125 -22.96875 C 5.578125 -24.1875 7.050781 -25.128906 8.75 -25.796875 C 10.457031 -26.472656 12.320312 -26.8125 14.34375 -26.8125 C 16.03125 -26.8125 17.6875 -26.535156 19.3125 -25.984375 C 20.945312 -25.441406 22.410156 -24.566406 23.703125 -23.359375 C 25.003906 -22.148438 26.015625 -20.535156 26.734375 -18.515625 L 22.4375 -16.984375 C 21.863281 -18.359375 21.132812 -19.425781 20.25 -20.1875 C 19.375 -20.945312 18.425781 -21.476562 17.40625 -21.78125 C 16.382812 -22.09375 15.363281 -22.25 14.34375 -22.25 C 12.644531 -22.25 11.148438 -21.863281 9.859375 -21.09375 C 8.566406 -20.320312 7.550781 -19.25 6.8125 -17.875 C 6.082031 -16.507812 5.71875 -14.929688 5.71875 -13.140625 C 5.71875 -11.378906 6.082031 -9.796875 6.8125 -8.390625 C 7.550781 -6.984375 8.566406 -5.878906 9.859375 -5.078125 C 11.148438 -4.285156 12.644531 -3.890625 14.34375 -3.890625 C 15.363281 -3.890625 16.382812 -4.054688 17.40625 -4.390625 C 18.425781 -4.722656 19.375 -5.289062 20.25 -6.09375 C 21.132812 -6.90625 21.863281 -8 22.4375 -9.375 L 26.96875 -7.953125 C 26.113281 -5.859375 25.023438 -4.179688 23.703125 -2.921875 C 22.390625 -1.671875 20.929688 -0.765625 19.328125 -0.203125 C 17.722656 0.355469 16.0625 0.640625 14.34375 0.640625 Z M 14.34375 0.640625 "/></g></g></g><g fill="#ffffff" fill-opacity="1"><g transform="translate(28.046819, 29.384752)"><g><path d="M -0.859375 0 L 12.46875 -26.296875 L 16.984375 -26.296875 L 30.25 0 L 24.53125 0 L 21.328125 -6.28125 L 7.921875 -6.28125 L 4.703125 0 Z M 10.078125 -10.609375 L 19.15625 -10.609375 L 16.546875 -16.25 L 14.75 -21.0625 L 12.8125 -16.171875 Z M 10.078125 -10.609375 "/></g></g></g><g fill="#ffffff" fill-opacity="1"><g transform="translate(58.331468, 29.384752)"><g><path d="M 1.859375 0 L 1.859375 -26.140625 L 15.390625 -26.140625 C 16.535156 -26.140625 17.789062 -25.988281 19.15625 -25.6875 C 20.53125 -25.394531 21.75 -24.820312 22.8125 -23.96875 C 23.738281 -23.226562 24.445312 -22.289062 24.9375 -21.15625 C 25.4375 -20.019531 25.6875 -18.867188 25.6875 -17.703125 C 25.6875 -16.554688 25.421875 -15.40625 24.890625 -14.25 C 24.359375 -13.09375 23.601562 -12.113281 22.625 -11.3125 C 21.351562 -10.320312 19.722656 -9.773438 17.734375 -9.671875 L 25.984375 -0.21875 L 25.984375 0 L 20.125 0 L 11.875 -9.515625 L 7.0625 -9.515625 L 7.0625 0 Z M 7.0625 -13.78125 L 15.765625 -13.78125 C 17.273438 -13.78125 18.441406 -14.097656 19.265625 -14.734375 C 20.085938 -15.367188 20.5 -16.367188 20.5 -17.734375 C 20.5 -19.234375 20 -20.273438 19 -20.859375 C 18.007812 -21.441406 16.804688 -21.734375 15.390625 -21.734375 L 7.0625 -21.734375 Z M 7.0625 -13.78125 "/></g></g></g><g fill="#ffffff" fill-opacity="1"><g transform="translate(84.993886, 29.384752)"><g><path d="M 1.859375 0 L 1.859375 -26.140625 L 15.390625 -26.140625 C 16.535156 -26.140625 17.789062 -25.988281 19.15625 -25.6875 C 20.53125 -25.394531 21.75 -24.820312 22.8125 -23.96875 C 23.738281 -23.226562 24.445312 -22.289062 24.9375 -21.15625 C 25.4375 -20.019531 25.6875 -18.867188 25.6875 -17.703125 C 25.6875 -16.554688 25.421875 -15.40625 24.890625 -14.25 C 24.359375 -13.09375 23.601562 -12.113281 22.625 -11.3125 C 21.351562 -10.320312 19.722656 -9.773438 17.734375 -9.671875 L 25.984375 -0.21875 L 25.984375 0 L 20.125 0 L 11.875 -9.515625 L 7.0625 -9.515625 L 7.0625 0 Z M 7.0625 -13.78125 L 15.765625 -13.78125 C 17.273438 -13.78125 18.441406 -14.097656 19.265625 -14.734375 C 20.085938 -15.367188 20.5 -16.367188 20.5 -17.734375 C 20.5 -19.234375 20 -20.273438 19 -20.859375 C 18.007812 -21.441406 16.804688 -21.734375 15.390625 -21.734375 L 7.0625 -21.734375 Z M 7.0625 -13.78125 "/></g></g></g><g fill="#ffffff" fill-opacity="1"><g transform="translate(111.656304, 29.384752)"><g><path d="M -0.859375 0 L 12.46875 -26.296875 L 16.984375 -26.296875 L 30.25 0 L 24.53125 0 L 21.328125 -6.28125 L 7.921875 -6.28125 L 4.703125 0 Z M 10.078125 -10.609375 L 19.15625 -10.609375 L 16.546875 -16.25 L 14.75 -21.0625 L 12.8125 -16.171875 Z M 10.078125 -10.609375 "/></g></g></g><g fill="#ffffff" fill-opacity="1"><g transform="translate(138.094595, 29.384752)"><g><path d="M 11.234375 0.15625 L -0.59375 -26.140625 L 5.078125 -26.140625 L 12.21875 -9.828125 L 13.8125 -5.34375 L 15.5 -9.828125 L 21.21875 -22.140625 L 25.015625 -22.140625 L 30.921875 -9.78125 L 32.59375 -5.296875 L 34.203125 -9.828125 L 41.078125 -26.140625 L 46.828125 -26.140625 L 35.0625 0.15625 L 30.359375 0.15625 L 24.3125 -12.578125 L 23.109375 -16.0625 L 21.953125 -12.578125 L 16.0625 0.15625 Z M 11.234375 0.15625 "/></g></g></g><g fill="#ffffff" fill-opacity="1"><g transform="translate(181.411623, 29.384752)"><g><path d="M -0.859375 0 L 12.46875 -26.296875 L 16.984375 -26.296875 L 30.25 0 L 24.53125 0 L 21.328125 -6.28125 L 7.921875 -6.28125 L 4.703125 0 Z M 10.078125 -10.609375 L 19.15625 -10.609375 L 16.546875 -16.25 L 14.75 -21.0625 L 12.8125 -16.171875 Z M 10.078125 -10.609375 "/></g></g></g><g fill="#ffffff" fill-opacity="1"><g transform="translate(207.401802, 29.384752)"><g><path d="M 11.171875 0 L 11.171875 -10.1875 L -0.96875 -26.140625 L 5.078125 -26.140625 L 13.78125 -14.5625 L 22.515625 -26.140625 L 28.5625 -26.140625 L 16.390625 -10.1875 L 16.390625 0 Z M 11.171875 0 "/></g></g></g></g></g><g fill="#ffffff" fill-opacity="1"><g transform="translate(124.640393, 229.63708)"><g><path d="M 6.546875 0.296875 C 5.617188 0.296875 4.765625 0.136719 3.984375 -0.171875 C 3.210938 -0.484375 2.539062 -0.921875 1.96875 -1.484375 C 1.40625 -2.046875 0.96875 -2.707031 0.65625 -3.46875 C 0.34375 -4.238281 0.1875 -5.082031 0.1875 -6 C 0.1875 -6.90625 0.34375 -7.738281 0.65625 -8.5 C 0.96875 -9.257812 1.40625 -9.914062 1.96875 -10.46875 C 2.539062 -11.03125 3.210938 -11.460938 3.984375 -11.765625 C 4.765625 -12.078125 5.617188 -12.234375 6.546875 -12.234375 C 7.316406 -12.234375 8.070312 -12.109375 8.8125 -11.859375 C 9.550781 -11.609375 10.21875 -11.207031 10.8125 -10.65625 C 11.40625 -10.101562 11.863281 -9.367188 12.1875 -8.453125 L 10.234375 -7.75 C 9.972656 -8.375 9.640625 -8.859375 9.234375 -9.203125 C 8.835938 -9.546875 8.40625 -9.789062 7.9375 -9.9375 C 7.46875 -10.082031 7.003906 -10.15625 6.546875 -10.15625 C 5.765625 -10.15625 5.078125 -9.976562 4.484375 -9.625 C 3.898438 -9.269531 3.441406 -8.78125 3.109375 -8.15625 C 2.773438 -7.53125 2.609375 -6.8125 2.609375 -6 C 2.609375 -5.1875 2.773438 -4.457031 3.109375 -3.8125 C 3.441406 -3.175781 3.898438 -2.675781 4.484375 -2.3125 C 5.078125 -1.945312 5.765625 -1.765625 6.546875 -1.765625 C 7.003906 -1.765625 7.46875 -1.84375 7.9375 -2 C 8.40625 -2.15625 8.835938 -2.414062 9.234375 -2.78125 C 9.640625 -3.15625 9.972656 -3.65625 10.234375 -4.28125 L 12.296875 -3.625 C 11.910156 -2.675781 11.414062 -1.914062 10.8125 -1.34375 C 10.207031 -0.769531 9.539062 -0.351562 8.8125 -0.09375 C 8.082031 0.164062 7.328125 0.296875 6.546875 0.296875 Z M 6.546875 0.296875 "/></g></g></g><g fill="#ffffff" fill-opacity="1"><g transform="translate(145.007682, 229.63708)"><g><path d="M -0.390625 0 L 5.6875 -11.984375 L 7.75 -11.984375 L 13.796875 0 L 11.1875 0 L 9.71875 -2.859375 L 3.609375 -2.859375 L 2.140625 0 Z M 4.59375 -4.84375 L 8.734375 -4.84375 L 7.546875 -7.40625 L 6.734375 -9.609375 L 5.84375 -7.375 Z M 4.59375 -4.84375 "/></g></g></g><g fill="#ffffff" fill-opacity="1"><g transform="translate(166.600943, 229.63708)"><g><path d="M 0.828125 0 L 0.828125 -11.921875 L 6.703125 -11.921875 C 7.640625 -11.921875 8.460938 -11.769531 9.171875 -11.46875 C 9.878906 -11.175781 10.429688 -10.734375 10.828125 -10.140625 C 11.234375 -9.546875 11.4375 -8.78125 11.4375 -7.84375 C 11.4375 -6.894531 11.222656 -6.113281 10.796875 -5.5 C 10.367188 -4.882812 9.789062 -4.429688 9.0625 -4.140625 C 8.34375 -3.847656 7.546875 -3.703125 6.671875 -3.703125 L 3.1875 -3.703125 L 3.1875 0 Z M 3.1875 -5.671875 L 6.6875 -5.671875 C 7.394531 -5.679688 7.976562 -5.84375 8.4375 -6.15625 C 8.894531 -6.476562 9.125 -7.039062 9.125 -7.84375 C 9.125 -8.375 9.015625 -8.785156 8.796875 -9.078125 C 8.585938 -9.367188 8.300781 -9.570312 7.9375 -9.6875 C 7.570312 -9.8125 7.160156 -9.875 6.703125 -9.875 L 3.1875 -9.875 Z M 3.1875 -5.671875 "/></g></g></g><g fill="#ffffff" fill-opacity="1"><g transform="translate(186.71288, 229.63708)"><g><path d="M 0.84375 0 L 0.84375 -11.921875 L 3.21875 -11.921875 L 3.21875 0 Z M 0.84375 0 "/></g></g></g><g fill="#ffffff" fill-opacity="1"><g transform="translate(199.554226, 229.63708)"><g><path d="M 4.484375 0 L 4.484375 -9.890625 L -0.15625 -9.890625 L -0.15625 -11.921875 L 11.484375 -11.921875 L 11.484375 -9.890625 L 6.859375 -9.890625 L 6.859375 0 Z M 4.484375 0 "/></g></g></g><g fill="#ffffff" fill-opacity="1"><g transform="translate(217.520179, 229.63708)"><g><path d="M -0.390625 0 L 5.6875 -11.984375 L 7.75 -11.984375 L 13.796875 0 L 11.1875 0 L 9.71875 -2.859375 L 3.609375 -2.859375 L 2.140625 0 Z M 4.59375 -4.84375 L 8.734375 -4.84375 L 7.546875 -7.40625 L 6.734375 -9.609375 L 5.84375 -7.375 Z M 4.59375 -4.84375 "/></g></g></g><g fill="#ffffff" fill-opacity="1"><g transform="translate(239.471124, 229.63708)"><g><path d="M 0.828125 0 L 0.828125 -11.921875 L 3.234375 -11.921875 L 3.234375 -2.046875 L 10.359375 -2.046875 L 10.359375 0 Z M 0.828125 0 "/></g></g></g><g clip-path="url(#1531ae1813)"><path fill="#ffffff" d="M 240.386719 153.382812 C 242.179688 154.851562 244.089844 156.144531 246.105469 157.210938 C 247.121094 157.726562 248.152344 158.214844 249.226562 158.585938 C 250.289062 158.984375 251.382812 159.300781 252.496094 159.527344 C 254.710938 160.019531 257 160.15625 259.273438 160.011719 C 260.410156 159.933594 261.546875 159.792969 262.667969 159.5625 C 263.796875 159.351562 264.910156 159.050781 265.996094 158.652344 C 263.941406 159.730469 261.652344 160.359375 259.328125 160.632812 C 257.003906 160.910156 254.625 160.804688 252.328125 160.3125 C 250.027344 159.828125 247.8125 158.949219 245.800781 157.757812 C 243.78125 156.570312 241.964844 155.078125 240.386719 153.382812 Z M 267.601562 154.746094 C 266.902344 154.789062 266.199219 154.804688 265.5 154.75 C 265.21875 154.730469 264.941406 154.699219 264.660156 154.664062 L 266.730469 156.621094 L 266.75 156.640625 C 266.804688 156.695312 266.847656 156.769531 266.859375 156.851562 C 266.890625 157.054688 266.753906 157.242188 266.550781 157.273438 C 265.863281 157.378906 265.203125 157.4375 264.523438 157.46875 C 263.851562 157.5 263.171875 157.5 262.496094 157.46875 C 261.824219 157.441406 261.148438 157.375 260.480469 157.273438 C 260.15625 157.226562 259.832031 157.164062 259.511719 157.089844 C 259.742188 157.339844 259.988281 157.578125 260.246094 157.78125 L 260.261719 157.796875 C 260.328125 157.847656 260.371094 157.929688 260.375 158.027344 C 260.378906 158.195312 260.246094 158.332031 260.074219 158.339844 C 258.609375 158.371094 257.179688 158.253906 255.75 158.046875 C 254.324219 157.835938 252.914062 157.511719 251.542969 157.074219 C 250.167969 156.644531 248.851562 156.050781 247.59375 155.359375 C 246.320312 154.6875 245.1875 153.789062 244.117188 152.847656 L 244.96875 153.496094 L 245.394531 153.816406 L 245.847656 154.101562 L 246.75 154.671875 L 247.695312 155.167969 C 248.964844 155.800781 250.289062 156.328125 251.660156 156.695312 C 253.019531 157.085938 254.410156 157.371094 255.816406 157.542969 C 256.957031 157.679688 258.113281 157.75 259.25 157.738281 C 259.179688 157.671875 259.109375 157.605469 259.042969 157.535156 C 258.785156 157.273438 258.546875 157.007812 258.316406 156.714844 C 258.253906 156.636719 258.226562 156.527344 258.253906 156.421875 C 258.300781 156.242188 258.480469 156.136719 258.660156 156.183594 L 258.675781 156.1875 C 259.304688 156.347656 259.9375 156.5 260.582031 156.585938 C 261.226562 156.675781 261.875 156.738281 262.527344 156.757812 C 263.179688 156.78125 263.835938 156.777344 264.488281 156.742188 C 264.875 156.71875 265.265625 156.683594 265.65625 156.640625 L 263.21875 154.375 C 263.128906 154.292969 263.082031 154.164062 263.101562 154.03125 C 263.136719 153.820312 263.335938 153.675781 263.546875 153.710938 L 263.566406 153.714844 C 264.226562 153.824219 264.886719 153.917969 265.554688 153.953125 C 266.21875 153.996094 266.882812 153.992188 267.546875 153.953125 C 268.207031 153.90625 268.867188 153.816406 269.511719 153.671875 C 269.871094 153.589844 270.234375 153.484375 270.582031 153.367188 C 268.679688 152.492188 266.75 151.675781 264.738281 151.078125 C 263.609375 150.691406 262.445312 150.425781 261.300781 150.105469 C 260.71875 149.964844 260.132812 149.847656 259.550781 149.71875 C 258.972656 149.582031 258.382812 149.476562 257.792969 149.382812 C 256.621094 149.167969 255.433594 149.03125 254.246094 148.886719 C 253.054688 148.78125 251.863281 148.683594 250.667969 148.632812 C 248.277344 148.527344 245.875 148.574219 243.492188 148.839844 C 245.859375 148.425781 248.269531 148.296875 250.675781 148.296875 C 253.085938 148.289062 255.492188 148.492188 257.878906 148.84375 C 258.476562 148.921875 259.074219 149.015625 259.664062 149.136719 C 260.257812 149.253906 260.851562 149.355469 261.441406 149.484375 C 262.617188 149.769531 263.796875 150.027344 264.945312 150.414062 C 267.269531 151.085938 269.5 152.039062 271.699219 153.042969 L 271.703125 153.046875 C 271.777344 153.082031 271.839844 153.136719 271.878906 153.214844 C 271.972656 153.398438 271.898438 153.625 271.714844 153.714844 C 271.035156 154.058594 270.378906 154.257812 269.6875 154.425781 C 269 154.585938 268.300781 154.6875 267.601562 154.746094 Z M 234.113281 149.992188 C 238.777344 153.585938 244.449219 160.644531 252.9375 162.140625 C 252.152344 164.769531 246.457031 163.453125 240.753906 163.0625 C 234.425781 162.628906 234.046875 164.125 231.234375 165.0625 C 228.421875 166 229.917969 167.964844 229.917969 167.964844 C 229.917969 167.964844 230.160156 166.824219 231.523438 166.625 C 232.886719 166.421875 234.984375 165.863281 234.984375 165.863281 C 235.296875 167.117188 237.328125 167.425781 239.339844 167.25 C 241.347656 167.070312 241.683594 168.523438 241.683594 168.523438 C 241.683594 168.523438 242.398438 166.734375 240.164062 166.289062 C 237.929688 165.84375 237.285156 164.972656 237.285156 164.972656 C 243.445312 163.65625 255.144531 167.496094 256.484375 166.246094 C 257.457031 165.339844 258.097656 163.335938 258.375 162.296875 C 259.417969 162.179688 260.496094 161.976562 261.613281 161.679688 C 263.019531 162.179688 266.082031 163.105469 269.078125 162.941406 C 273.140625 162.71875 281.355469 168.253906 283.855469 169.59375 C 286.359375 170.933594 287.765625 169.503906 290.957031 169.816406 C 294.148438 170.128906 293.769531 167.71875 293.769531 167.71875 C 293.769531 167.71875 292.5625 168.855469 290.710938 168.277344 C 288.859375 167.695312 287.453125 167.964844 287.453125 167.964844 C 287.453125 167.964844 286.714844 166.667969 284.863281 165.597656 C 283.007812 164.527344 284.058594 163.230469 284.058594 163.230469 C 284.058594 163.230469 282.449219 164.300781 283.691406 165.542969 C 284.929688 166.78125 284.660156 167.683594 284.660156 167.683594 C 280.335938 165.867188 271.605469 159.992188 269.253906 158.386719 C 269.914062 158 270.582031 157.585938 271.265625 157.136719 L 268.21875 156.933594 C 268.21875 156.933594 269.523438 156.765625 273.273438 154.554688 L 290.867188 156.777344 L 287.429688 154.992188 L 295.332031 156.332031 L 293.414062 154.1875 L 300.691406 154.769531 L 298.816406 152.847656 L 304.085938 152.847656 L 308.59375 149.054688 L 300.511719 149.054688 L 305.066406 146.863281 L 273.453125 150.75 C 273.453125 150.75 263.046875 144.410156 240.8125 146.597656 C 240.8125 146.597656 237.820312 145.300781 236.792969 143.5625 C 236.792969 143.5625 238.445312 143.113281 240.007812 143.472656 C 240.007812 143.472656 238.402344 141.105469 235.855469 140.792969 C 235.855469 140.792969 237.507812 140.054688 238.949219 140.289062 C 238.949219 140.289062 237.808594 138.582031 235.261719 138.28125 C 235.261719 138.28125 236.035156 137.308594 237.675781 137.34375 C 237.675781 137.34375 235.898438 135.433594 232.449219 136.671875 C 232.449219 136.671875 232.449219 135.636719 234.058594 135.300781 C 234.058594 135.300781 231.246094 134.863281 229.605469 136.671875 C 229.605469 136.671875 229.402344 135.878906 229.570312 135.253906 C 229.570312 135.253906 224.78125 137.277344 224.042969 141.863281 C 224.042969 141.863281 220.359375 142.300781 215.839844 145.414062 C 215.839844 145.414062 226.699219 144.277344 234.113281 149.992188 " fill-opacity="1" fill-rule="nonzero"/></g></svg>