<svg xmlns="http://www.w3.org/2000/svg" xmlns:xlink="http://www.w3.org/1999/xlink" width="2000" zoomAndPan="magnify" viewBox="0 0 1500 1499.999933" height="2000" preserveAspectRatio="xMidYMid meet" version="1.0"><defs><g/><clipPath id="c868cf6111"><path d="M 0.652344 0.359375 L 373.800781 0.359375 L 373.800781 141.238281 L 0.652344 141.238281 Z M 0.652344 0.359375 " clip-rule="nonzero"/></clipPath><clipPath id="96943173fc"><rect x="0" width="374" y="0" height="142"/></clipPath></defs><g fill="#ffffff" fill-opacity="1"><g transform="translate(440.224048, 778.434921)"><g><path d="M 35.21875 1.5625 C 30.257812 1.5625 25.6875 0.722656 21.5 -0.953125 C 17.3125 -2.640625 13.6875 -4.992188 10.625 -8.015625 C 7.570312 -11.046875 5.207031 -14.625 3.53125 -18.75 C 1.851562 -22.875 1.015625 -27.382812 1.015625 -32.28125 C 1.015625 -37.164062 1.851562 -41.65625 3.53125 -45.75 C 5.207031 -49.851562 7.570312 -53.398438 10.625 -56.390625 C 13.6875 -59.390625 17.3125 -61.710938 21.5 -63.359375 C 25.6875 -65.015625 30.257812 -65.84375 35.21875 -65.84375 C 39.375 -65.84375 43.453125 -65.171875 47.453125 -63.828125 C 51.460938 -62.484375 55.054688 -60.328125 58.234375 -57.359375 C 61.410156 -54.390625 63.882812 -50.429688 65.65625 -45.484375 L 55.109375 -41.71875 C 53.703125 -45.082031 51.914062 -47.695312 49.75 -49.5625 C 47.582031 -51.425781 45.242188 -52.738281 42.734375 -53.5 C 40.222656 -54.269531 37.71875 -54.65625 35.21875 -54.65625 C 31.0625 -54.65625 27.390625 -53.707031 24.203125 -51.8125 C 21.023438 -49.914062 18.535156 -47.285156 16.734375 -43.921875 C 14.929688 -40.554688 14.03125 -36.675781 14.03125 -32.28125 C 14.03125 -27.9375 14.929688 -24.035156 16.734375 -20.578125 C 18.535156 -17.128906 21.023438 -14.425781 24.203125 -12.46875 C 27.390625 -10.507812 31.0625 -9.53125 35.21875 -9.53125 C 37.71875 -9.53125 40.222656 -9.941406 42.734375 -10.765625 C 45.242188 -11.597656 47.582031 -13.003906 49.75 -14.984375 C 51.914062 -16.972656 53.703125 -19.648438 55.109375 -23.015625 L 66.203125 -19.53125 C 64.128906 -14.394531 61.472656 -10.28125 58.234375 -7.1875 C 54.992188 -4.101562 51.398438 -1.875 47.453125 -0.5 C 43.515625 0.871094 39.4375 1.5625 35.21875 1.5625 Z M 35.21875 1.5625 "/></g></g></g><g fill="#ffffff" fill-opacity="1"><g transform="translate(507.072645, 778.434921)"><g><path d="M -2.109375 0 L 30.625 -64.5625 L 41.71875 -64.5625 L 74.28125 0 L 60.25 0 L 52.359375 -15.40625 L 19.4375 -15.40625 L 11.546875 0 Z M 24.765625 -26.046875 L 47.046875 -26.046875 L 40.625 -39.890625 L 36.21875 -51.71875 L 31.453125 -39.703125 Z M 24.765625 -26.046875 "/></g></g></g><g fill="#ffffff" fill-opacity="1"><g transform="translate(581.440673, 778.434921)"><g><path d="M 4.578125 0 L 4.578125 -64.1875 L 37.78125 -64.1875 C 40.59375 -64.1875 43.679688 -63.816406 47.046875 -63.078125 C 50.410156 -62.347656 53.40625 -60.945312 56.03125 -58.875 C 58.289062 -57.039062 60.03125 -54.734375 61.25 -51.953125 C 62.476562 -49.171875 63.09375 -46.34375 63.09375 -43.46875 C 63.09375 -40.65625 62.4375 -37.828125 61.125 -34.984375 C 59.8125 -32.140625 57.960938 -29.738281 55.578125 -27.78125 C 52.453125 -25.34375 48.445312 -24 43.5625 -23.75 L 63.828125 -0.546875 L 63.828125 0 L 49.421875 0 L 29.15625 -23.390625 L 17.328125 -23.390625 L 17.328125 0 Z M 17.328125 -33.84375 L 38.703125 -33.84375 C 42.429688 -33.84375 45.300781 -34.617188 47.3125 -36.171875 C 49.332031 -37.734375 50.34375 -40.195312 50.34375 -43.5625 C 50.34375 -47.226562 49.117188 -49.78125 46.671875 -51.21875 C 44.234375 -52.65625 41.269531 -53.375 37.78125 -53.375 L 17.328125 -53.375 Z M 17.328125 -33.84375 "/></g></g></g><g fill="#ffffff" fill-opacity="1"><g transform="translate(646.913781, 778.434921)"><g><path d="M 4.578125 0 L 4.578125 -64.1875 L 37.78125 -64.1875 C 40.59375 -64.1875 43.679688 -63.816406 47.046875 -63.078125 C 50.410156 -62.347656 53.40625 -60.945312 56.03125 -58.875 C 58.289062 -57.039062 60.03125 -54.734375 61.25 -51.953125 C 62.476562 -49.171875 63.09375 -46.34375 63.09375 -43.46875 C 63.09375 -40.65625 62.4375 -37.828125 61.125 -34.984375 C 59.8125 -32.140625 57.960938 -29.738281 55.578125 -27.78125 C 52.453125 -25.34375 48.445312 -24 43.5625 -23.75 L 63.828125 -0.546875 L 63.828125 0 L 49.421875 0 L 29.15625 -23.390625 L 17.328125 -23.390625 L 17.328125 0 Z M 17.328125 -33.84375 L 38.703125 -33.84375 C 42.429688 -33.84375 45.300781 -34.617188 47.3125 -36.171875 C 49.332031 -37.734375 50.34375 -40.195312 50.34375 -43.5625 C 50.34375 -47.226562 49.117188 -49.78125 46.671875 -51.21875 C 44.234375 -52.65625 41.269531 -53.375 37.78125 -53.375 L 17.328125 -53.375 Z M 17.328125 -33.84375 "/></g></g></g><g fill="#ffffff" fill-opacity="1"><g transform="translate(712.386889, 778.434921)"><g><path d="M -2.109375 0 L 30.625 -64.5625 L 41.71875 -64.5625 L 74.28125 0 L 60.25 0 L 52.359375 -15.40625 L 19.4375 -15.40625 L 11.546875 0 Z M 24.765625 -26.046875 L 47.046875 -26.046875 L 40.625 -39.890625 L 36.21875 -51.71875 L 31.453125 -39.703125 Z M 24.765625 -26.046875 "/></g></g></g><g fill="#ffffff" fill-opacity="1"><g transform="translate(777.308782, 778.434921)"><g><path d="M 27.609375 0.359375 L -1.46875 -64.1875 L 12.46875 -64.1875 L 29.984375 -24.125 L 33.9375 -13.109375 L 38.0625 -24.125 L 52.09375 -54.375 L 61.4375 -54.375 L 75.9375 -24.03125 L 80.0625 -13.015625 L 84 -24.125 L 100.875 -64.1875 L 115 -64.1875 L 86.109375 0.359375 L 74.546875 0.359375 L 59.703125 -30.90625 L 56.765625 -39.4375 L 53.921875 -30.90625 L 39.4375 0.359375 Z M 27.609375 0.359375 "/></g></g></g><g fill="#ffffff" fill-opacity="1"><g transform="translate(883.678722, 778.434921)"><g><path d="M -2.109375 0 L 30.625 -64.5625 L 41.71875 -64.5625 L 74.28125 0 L 60.25 0 L 52.359375 -15.40625 L 19.4375 -15.40625 L 11.546875 0 Z M 24.765625 -26.046875 L 47.046875 -26.046875 L 40.625 -39.890625 L 36.21875 -51.71875 L 31.453125 -39.703125 Z M 24.765625 -26.046875 "/></g></g></g><g fill="#ffffff" fill-opacity="1"><g transform="translate(947.500082, 778.434921)"><g><path d="M 27.421875 0 L 27.421875 -25.03125 L -2.390625 -64.1875 L 12.46875 -64.1875 L 33.84375 -35.765625 L 55.296875 -64.1875 L 70.15625 -64.1875 L 40.25 -25.03125 L 40.25 0 Z M 27.421875 0 "/></g></g></g><g fill="#ffffff" fill-opacity="1"><g transform="translate(1017.28308, 778.434921)"><g/></g></g><g fill="#ffffff" fill-opacity="1"><g transform="translate(1041.501344, 778.434921)"><g><path d="M 38.703125 1.375 C 33.742188 1.375 29.203125 0.535156 25.078125 -1.140625 C 20.953125 -2.828125 17.375 -5.179688 14.34375 -8.203125 C 11.320312 -11.234375 8.984375 -14.796875 7.328125 -18.890625 C 5.679688 -22.984375 4.859375 -27.445312 4.859375 -32.28125 C 4.859375 -37.113281 5.679688 -41.5625 7.328125 -45.625 C 8.984375 -49.6875 11.320312 -53.210938 14.34375 -56.203125 C 17.375 -59.203125 20.953125 -61.523438 25.078125 -63.171875 C 29.203125 -64.828125 33.742188 -65.65625 38.703125 -65.65625 C 42.796875 -65.65625 46.828125 -65.03125 50.796875 -63.78125 C 54.773438 -62.53125 58.320312 -60.570312 61.4375 -57.90625 C 64.5625 -55.25 66.851562 -51.84375 68.3125 -47.6875 L 61.8125 -46.21875 C 60.40625 -49.457031 58.476562 -52.023438 56.03125 -53.921875 C 53.582031 -55.816406 50.859375 -57.175781 47.859375 -58 C 44.867188 -58.820312 41.816406 -59.234375 38.703125 -59.234375 C 33.566406 -59.234375 29.039062 -58.101562 25.125 -55.84375 C 21.207031 -53.582031 18.132812 -50.414062 15.90625 -46.34375 C 13.675781 -42.28125 12.5625 -37.59375 12.5625 -32.28125 C 12.5625 -26.957031 13.675781 -22.265625 15.90625 -18.203125 C 18.132812 -14.140625 21.207031 -10.945312 25.125 -8.625 C 29.039062 -6.300781 33.566406 -5.140625 38.703125 -5.140625 C 41.628906 -5.140625 44.617188 -5.597656 47.671875 -6.515625 C 50.734375 -7.429688 53.519531 -8.863281 56.03125 -10.8125 C 58.539062 -12.769531 60.4375 -15.28125 61.71875 -18.34375 L 68.3125 -16.875 C 66.601562 -12.65625 64.203125 -9.195312 61.109375 -6.5 C 58.023438 -3.8125 54.539062 -1.828125 50.65625 -0.546875 C 46.78125 0.730469 42.796875 1.375 38.703125 1.375 Z M 38.703125 1.375 "/></g></g></g><g fill="#ffffff" fill-opacity="1"><g transform="translate(1111.926208, 778.434921)"><g><path d="M 1.28125 0 L 34.203125 -64.828125 L 41.90625 -64.828125 L 74.734375 0 L 66.390625 0 L 57.859375 -16.875 L 18.15625 -16.875 L 9.625 0 Z M 21.359375 -23.203125 L 54.65625 -23.203125 L 38.0625 -56.03125 Z M 21.359375 -23.203125 "/></g></g></g><g fill="#ffffff" fill-opacity="1"><g transform="translate(1187.027733, 778.434921)"><g><path d="M 8.53125 0 L 8.53125 -64.28125 L 39.984375 -64.28125 C 43.222656 -64.28125 46.445312 -63.867188 49.65625 -63.046875 C 52.863281 -62.222656 55.691406 -60.738281 58.140625 -58.59375 C 60.273438 -56.695312 61.878906 -54.390625 62.953125 -51.671875 C 64.023438 -48.953125 64.5625 -46.125 64.5625 -43.1875 C 64.5625 -40.195312 63.992188 -37.265625 62.859375 -34.390625 C 61.734375 -31.515625 60.035156 -29.128906 57.765625 -27.234375 C 55.328125 -25.160156 52.515625 -23.738281 49.328125 -22.96875 C 46.148438 -22.207031 42.972656 -21.828125 39.796875 -21.828125 L 16.046875 -21.828125 L 16.046875 0 Z M 16.046875 -28.15625 L 39.890625 -28.15625 C 42.085938 -28.15625 44.378906 -28.425781 46.765625 -28.96875 C 49.148438 -29.519531 51.195312 -30.5625 52.90625 -32.09375 C 54.3125 -33.320312 55.351562 -34.941406 56.03125 -36.953125 C 56.707031 -38.972656 57.046875 -41.050781 57.046875 -43.1875 C 57.046875 -45.269531 56.722656 -47.273438 56.078125 -49.203125 C 55.429688 -51.128906 54.46875 -52.671875 53.1875 -53.828125 C 51.476562 -55.484375 49.414062 -56.566406 47 -57.078125 C 44.582031 -57.597656 42.242188 -57.859375 39.984375 -57.859375 L 16.046875 -57.859375 Z M 16.046875 -28.15625 "/></g></g></g><g fill="#ffffff" fill-opacity="1"><g transform="translate(1255.251829, 778.434921)"><g><path d="M 8.625 0 L 8.625 -64.1875 L 16.140625 -64.1875 L 16.140625 0 Z M 8.625 0 "/></g></g></g><g fill="#ffffff" fill-opacity="1"><g transform="translate(1279.093486, 778.434921)"><g><path d="M 28.15625 0 L 28.15625 -57.859375 L 0.828125 -57.859375 L 0.828125 -64.1875 L 63 -64.1875 L 63 -57.859375 L 35.671875 -57.859375 L 35.671875 0 Z M 28.15625 0 "/></g></g></g><g fill="#ffffff" fill-opacity="1"><g transform="translate(1333.469992, 778.434921)"><g><path d="M 1.28125 0 L 34.203125 -64.828125 L 41.90625 -64.828125 L 74.734375 0 L 66.390625 0 L 57.859375 -16.875 L 18.15625 -16.875 L 9.625 0 Z M 21.359375 -23.203125 L 54.65625 -23.203125 L 38.0625 -56.03125 Z M 21.359375 -23.203125 "/></g></g></g><g fill="#ffffff" fill-opacity="1"><g transform="translate(1408.571518, 778.434921)"><g><path d="M 8.53125 0 L 8.53125 -64.1875 L 16.140625 -64.1875 L 16.140625 -6.328125 L 58.140625 -6.328125 L 58.140625 0 Z M 8.53125 0 "/></g></g></g><g transform="matrix(1, 0, 0, 1, 45, 663)"><g clip-path="url(#96943173fc)"><g clip-path="url(#c868cf6111)"><path fill="#ffffff" d="M 99.410156 73.546875 C 106.613281 79.4375 114.289062 84.636719 122.390625 88.925781 C 126.476562 91.007812 130.621094 92.964844 134.941406 94.460938 C 139.21875 96.0625 143.613281 97.335938 148.082031 98.242188 C 156.992188 100.214844 166.191406 100.765625 175.332031 100.1875 C 179.902344 99.871094 184.472656 99.3125 188.988281 98.386719 C 193.519531 97.539062 197.988281 96.316406 202.359375 94.726562 C 194.101562 99.0625 184.894531 101.585938 175.5625 102.6875 C 166.214844 103.804688 156.648438 103.382812 147.410156 101.40625 C 138.164062 99.445312 129.257812 95.917969 121.167969 91.132812 C 113.058594 86.359375 105.75 80.355469 99.410156 73.546875 Z M 208.820312 79.011719 C 206.007812 79.1875 203.179688 79.253906 200.375 79.027344 C 199.238281 78.957031 198.113281 78.828125 196.992188 78.691406 L 205.3125 86.5625 L 205.386719 86.632812 C 205.617188 86.855469 205.78125 87.144531 205.832031 87.484375 C 205.957031 88.292969 205.40625 89.046875 204.597656 89.171875 C 201.832031 89.601562 199.164062 89.832031 196.441406 89.964844 C 193.730469 90.09375 191.011719 90.089844 188.296875 89.964844 C 185.585938 89.859375 182.875 89.582031 180.179688 89.171875 C 178.878906 88.988281 177.582031 88.738281 176.292969 88.449219 C 177.226562 89.453125 178.210938 90.398438 179.242188 91.222656 L 179.304688 91.277344 C 179.574219 91.496094 179.753906 91.824219 179.761719 92.203125 C 179.777344 92.878906 179.238281 93.441406 178.5625 93.457031 C 172.664062 93.597656 166.917969 93.117188 161.167969 92.289062 C 155.4375 91.433594 149.777344 90.132812 144.261719 88.378906 C 138.734375 86.648438 133.429688 84.261719 128.378906 81.476562 C 123.261719 78.78125 118.710938 75.167969 114.398438 71.390625 L 117.832031 73.992188 L 119.542969 75.289062 L 121.363281 76.429688 L 124.992188 78.722656 L 128.785156 80.71875 C 133.894531 83.261719 139.214844 85.386719 144.722656 86.859375 C 150.199219 88.425781 155.792969 89.574219 161.441406 90.261719 C 166.015625 90.808594 170.667969 91.09375 175.246094 91.046875 C 174.964844 90.777344 174.675781 90.511719 174.402344 90.234375 C 173.375 89.175781 172.421875 88.105469 171.484375 86.933594 C 171.230469 86.613281 171.121094 86.179688 171.230469 85.753906 C 171.417969 85.035156 172.152344 84.605469 172.871094 84.792969 L 172.9375 84.808594 C 175.457031 85.464844 177.996094 86.070312 180.597656 86.410156 C 183.183594 86.78125 185.796875 87.03125 188.417969 87.109375 C 191.039062 87.207031 193.667969 87.1875 196.292969 87.042969 C 197.855469 86.953125 199.429688 86.808594 200.988281 86.628906 L 191.203125 77.53125 C 190.835938 77.191406 190.640625 76.671875 190.726562 76.140625 C 190.867188 75.292969 191.667969 74.722656 192.511719 74.863281 L 192.59375 74.875 C 195.242188 75.3125 197.90625 75.683594 200.578125 75.824219 C 203.25 76 205.925781 75.980469 208.59375 75.839844 C 211.253906 75.640625 213.902344 75.28125 216.492188 74.695312 C 217.929688 74.367188 219.394531 73.953125 220.800781 73.46875 C 213.152344 69.960938 205.382812 66.679688 197.304688 64.277344 C 192.773438 62.714844 188.09375 61.660156 183.476562 60.359375 C 181.148438 59.792969 178.796875 59.332031 176.457031 58.8125 C 174.121094 58.261719 171.757812 57.839844 169.386719 57.464844 C 164.664062 56.589844 159.894531 56.042969 155.125 55.460938 C 150.339844 55.039062 145.550781 54.648438 140.742188 54.4375 C 131.132812 54.011719 121.476562 54.210938 111.886719 55.273438 C 121.402344 53.605469 131.101562 53.09375 140.773438 53.085938 C 150.457031 53.058594 160.140625 53.875 169.730469 55.296875 C 172.136719 55.613281 174.53125 55.980469 176.910156 56.46875 C 179.292969 56.9375 181.6875 57.34375 184.058594 57.859375 C 188.769531 59.019531 193.523438 60.050781 198.132812 61.605469 C 207.480469 64.300781 216.449219 68.132812 225.289062 72.179688 L 225.304688 72.1875 C 225.601562 72.324219 225.855469 72.554688 226.015625 72.871094 C 226.386719 73.605469 226.089844 74.507812 225.355469 74.875 C 222.625 76.253906 219.980469 77.050781 217.195312 77.726562 C 214.4375 78.378906 211.632812 78.78125 208.820312 79.011719 Z M 74.191406 59.902344 C 92.9375 74.359375 115.734375 102.726562 149.863281 108.742188 C 146.714844 119.3125 123.808594 114.03125 100.890625 112.453125 C 75.445312 110.703125 73.921875 116.71875 62.613281 120.488281 C 51.304688 124.257812 57.316406 132.15625 57.316406 132.15625 C 57.316406 132.15625 58.304688 127.574219 63.777344 126.769531 C 69.253906 125.960938 77.691406 123.71875 77.691406 123.71875 C 78.945312 128.746094 87.117188 130 95.191406 129.28125 C 103.269531 128.566406 104.617188 134.398438 104.617188 134.398438 C 104.617188 134.398438 107.488281 127.21875 98.511719 125.421875 C 89.539062 123.628906 86.933594 120.128906 86.933594 120.128906 C 111.707031 114.832031 158.738281 130.269531 164.125 125.242188 C 168.027344 121.601562 170.605469 113.542969 171.730469 109.375 C 175.914062 108.90625 180.25 108.09375 184.738281 106.894531 C 190.386719 108.898438 202.703125 112.621094 214.746094 111.960938 C 231.082031 111.0625 264.109375 133.320312 274.160156 138.707031 C 284.214844 144.09375 289.871094 138.347656 302.707031 139.605469 C 315.539062 140.863281 314.011719 131.167969 314.011719 131.167969 C 314.011719 131.167969 309.167969 135.746094 301.71875 133.410156 C 294.265625 131.078125 288.613281 132.15625 288.613281 132.15625 C 288.613281 132.15625 285.652344 126.949219 278.203125 122.640625 C 270.75 118.335938 274.972656 113.128906 274.972656 113.128906 C 274.972656 113.128906 268.507812 117.433594 273.492188 122.417969 C 278.46875 127.398438 277.394531 131.035156 277.394531 131.035156 C 260.015625 123.734375 224.914062 100.101562 215.457031 93.648438 C 218.109375 92.09375 220.800781 90.433594 223.542969 88.625 L 211.289062 87.816406 C 211.289062 87.816406 216.542969 87.144531 231.621094 78.257812 L 302.34375 87.1875 L 288.523438 80.007812 L 320.296875 85.394531 L 312.578125 76.777344 L 341.835938 79.109375 L 334.296875 71.390625 L 355.480469 71.390625 L 373.609375 56.132812 L 341.117188 56.132812 L 359.429688 47.335938 L 232.335938 62.953125 C 232.335938 62.953125 190.511719 37.464844 101.117188 46.257812 C 101.117188 46.257812 89.089844 41.054688 84.960938 34.054688 C 84.960938 34.054688 91.601562 32.257812 97.886719 33.695312 C 97.886719 33.695312 91.421875 24.179688 81.191406 22.925781 C 81.191406 22.925781 87.832031 19.960938 93.621094 20.902344 C 93.621094 20.902344 89.042969 14.039062 78.8125 12.828125 C 78.8125 12.828125 81.910156 8.921875 88.507812 9.054688 C 88.507812 9.054688 81.371094 1.382812 67.503906 6.363281 C 67.503906 6.363281 67.503906 2.191406 73.964844 0.84375 C 73.964844 0.84375 62.65625 -0.90625 56.058594 6.363281 C 56.058594 6.363281 55.253906 3.167969 55.925781 0.660156 C 55.925781 0.660156 36.671875 8.785156 33.710938 27.230469 C 33.710938 27.230469 18.902344 28.980469 0.726562 41.503906 C 0.726562 41.503906 44.390625 36.925781 74.191406 59.902344 " fill-opacity="1" fill-rule="nonzero"/></g><g fill="#000000" fill-opacity="1"><g transform="translate(38.300905, 33.160477)"><g><path d="M 7.96875 0.359375 C 6.84375 0.359375 5.804688 0.167969 4.859375 -0.203125 C 3.910156 -0.585938 3.09375 -1.125 2.40625 -1.8125 C 1.71875 -2.5 1.179688 -3.304688 0.796875 -4.234375 C 0.421875 -5.171875 0.234375 -6.191406 0.234375 -7.296875 C 0.234375 -8.398438 0.421875 -9.414062 0.796875 -10.34375 C 1.179688 -11.269531 1.71875 -12.070312 2.40625 -12.75 C 3.09375 -13.425781 3.910156 -13.953125 4.859375 -14.328125 C 5.804688 -14.703125 6.84375 -14.890625 7.96875 -14.890625 C 8.90625 -14.890625 9.828125 -14.734375 10.734375 -14.421875 C 11.640625 -14.117188 12.453125 -13.632812 13.171875 -12.96875 C 13.890625 -12.300781 14.445312 -11.40625 14.84375 -10.28125 L 12.46875 -9.4375 C 12.144531 -10.195312 11.738281 -10.785156 11.25 -11.203125 C 10.757812 -11.628906 10.226562 -11.925781 9.65625 -12.09375 C 9.09375 -12.269531 8.53125 -12.359375 7.96875 -12.359375 C 7.019531 -12.359375 6.1875 -12.144531 5.46875 -11.71875 C 4.75 -11.289062 4.1875 -10.695312 3.78125 -9.9375 C 3.375 -9.175781 3.171875 -8.296875 3.171875 -7.296875 C 3.171875 -6.316406 3.375 -5.4375 3.78125 -4.65625 C 4.1875 -3.875 4.75 -3.257812 5.46875 -2.8125 C 6.1875 -2.375 7.019531 -2.15625 7.96875 -2.15625 C 8.53125 -2.15625 9.09375 -2.25 9.65625 -2.4375 C 10.226562 -2.625 10.757812 -2.941406 11.25 -3.390625 C 11.738281 -3.835938 12.144531 -4.441406 12.46875 -5.203125 L 14.96875 -4.421875 C 14.5 -3.253906 13.894531 -2.320312 13.15625 -1.625 C 12.425781 -0.925781 11.613281 -0.421875 10.71875 -0.109375 C 9.832031 0.199219 8.914062 0.359375 7.96875 0.359375 Z M 7.96875 0.359375 "/></g></g></g></g></g></svg>
