<svg xmlns="http://www.w3.org/2000/svg" xmlns:xlink="http://www.w3.org/1999/xlink" width="180" zoomAndPan="magnify" viewBox="0 0 135 135.000003" height="180" preserveAspectRatio="xMidYMid meet" version="1.0"><defs><g/><clipPath id="71f846a8ed"><path d="M 0.496094 0 L 134.503906 0 L 134.503906 134.007812 L 0.496094 134.007812 Z M 0.496094 0 " clip-rule="nonzero"/></clipPath><clipPath id="61565ab756"><path d="M 0.535156 0.0742188 L 120 0.0742188 L 120 45.339844 L 0.535156 45.339844 Z M 0.535156 0.0742188 " clip-rule="nonzero"/></clipPath><clipPath id="c12cae4325"><rect x="0" width="121" y="0" height="46"/></clipPath></defs><g clip-path="url(#71f846a8ed)"><path fill="#ffffff" d="M 0.496094 0 L 134.503906 0 L 134.503906 134.007812 L 0.496094 134.007812 Z M 0.496094 0 " fill-opacity="1" fill-rule="nonzero"/><path fill="#e8732a" d="M 0.496094 0 L 134.503906 0 L 134.503906 134.007812 L 0.496094 134.007812 Z M 0.496094 0 " fill-opacity="1" fill-rule="nonzero"/></g><g transform="matrix(1, 0, 0, 1, 9, 44)"><g clip-path="url(#c12cae4325)"><g clip-path="url(#61565ab756)"><path fill="#ffffff" d="M 32.144531 23.625 C 34.449219 25.511719 36.90625 27.175781 39.5 28.550781 C 40.804688 29.214844 42.132812 29.839844 43.515625 30.320312 C 44.882812 30.832031 46.289062 31.242188 47.722656 31.53125 C 50.574219 32.164062 53.515625 32.335938 56.441406 32.152344 C 57.90625 32.050781 59.367188 31.871094 60.8125 31.578125 C 62.265625 31.304688 63.695312 30.914062 65.09375 30.40625 C 62.449219 31.792969 59.503906 32.601562 56.515625 32.953125 C 53.527344 33.3125 50.464844 33.175781 47.507812 32.542969 C 44.546875 31.914062 41.695312 30.789062 39.109375 29.253906 C 36.511719 27.726562 34.171875 25.804688 32.144531 23.625 Z M 67.160156 25.375 C 66.261719 25.433594 65.355469 25.453125 64.457031 25.382812 C 64.09375 25.359375 63.734375 25.316406 63.375 25.273438 L 66.039062 27.792969 L 66.0625 27.816406 C 66.136719 27.886719 66.1875 27.980469 66.207031 28.085938 C 66.246094 28.347656 66.066406 28.589844 65.808594 28.628906 C 64.925781 28.765625 64.070312 28.839844 63.199219 28.882812 C 62.332031 28.921875 61.460938 28.921875 60.59375 28.882812 C 59.726562 28.847656 58.855469 28.757812 57.996094 28.628906 C 57.578125 28.570312 57.164062 28.488281 56.75 28.394531 C 57.050781 28.71875 57.363281 29.019531 57.695312 29.285156 L 57.714844 29.300781 C 57.800781 29.371094 57.859375 29.476562 57.859375 29.597656 C 57.863281 29.816406 57.695312 29.996094 57.476562 30 C 55.589844 30.042969 53.75 29.890625 51.910156 29.625 C 50.074219 29.351562 48.265625 28.933594 46.5 28.375 C 44.730469 27.820312 43.03125 27.058594 41.414062 26.164062 C 39.777344 25.300781 38.320312 24.144531 36.941406 22.9375 L 38.039062 23.769531 L 38.585938 24.183594 L 39.171875 24.550781 L 40.332031 25.285156 L 41.542969 25.921875 C 43.179688 26.734375 44.882812 27.417969 46.644531 27.886719 C 48.398438 28.390625 50.1875 28.757812 51.996094 28.976562 C 53.460938 29.152344 54.949219 29.242188 56.414062 29.226562 C 56.324219 29.140625 56.234375 29.054688 56.144531 28.96875 C 55.816406 28.628906 55.511719 28.285156 55.210938 27.910156 C 55.128906 27.808594 55.09375 27.671875 55.128906 27.535156 C 55.191406 27.304688 55.425781 27.167969 55.65625 27.226562 L 55.675781 27.230469 C 56.484375 27.441406 57.296875 27.636719 58.128906 27.742188 C 58.957031 27.863281 59.792969 27.941406 60.632812 27.96875 C 61.472656 28 62.3125 27.992188 63.152344 27.945312 C 63.652344 27.917969 64.15625 27.871094 64.652344 27.8125 L 61.523438 24.902344 C 61.40625 24.792969 61.34375 24.628906 61.371094 24.457031 C 61.414062 24.1875 61.671875 24.003906 61.941406 24.046875 L 61.96875 24.050781 C 62.816406 24.191406 63.667969 24.3125 64.523438 24.355469 C 65.378906 24.410156 66.234375 24.40625 67.089844 24.359375 C 67.941406 24.296875 68.789062 24.183594 69.617188 23.992188 C 70.078125 23.890625 70.546875 23.757812 70.996094 23.601562 C 68.546875 22.480469 66.0625 21.429688 63.476562 20.660156 C 62.023438 20.160156 60.527344 19.820312 59.050781 19.40625 C 58.304688 19.222656 57.550781 19.078125 56.804688 18.910156 C 56.054688 18.734375 55.300781 18.597656 54.539062 18.480469 C 53.027344 18.199219 51.503906 18.023438 49.976562 17.839844 C 48.445312 17.703125 46.910156 17.578125 45.371094 17.511719 C 42.296875 17.375 39.207031 17.4375 36.136719 17.777344 C 39.183594 17.246094 42.285156 17.082031 45.382812 17.078125 C 48.480469 17.070312 51.582031 17.332031 54.652344 17.785156 C 55.421875 17.886719 56.1875 18.003906 56.949219 18.160156 C 57.710938 18.3125 58.476562 18.441406 59.234375 18.605469 C 60.746094 18.976562 62.265625 19.308594 63.742188 19.804688 C 66.730469 20.667969 69.601562 21.894531 72.433594 23.1875 L 72.4375 23.191406 C 72.53125 23.234375 72.613281 23.308594 72.664062 23.410156 C 72.78125 23.644531 72.6875 23.933594 72.453125 24.050781 C 71.578125 24.492188 70.734375 24.746094 69.84375 24.964844 C 68.957031 25.171875 68.0625 25.300781 67.160156 25.375 Z M 24.070312 19.261719 C 30.070312 23.886719 37.367188 32.964844 48.292969 34.890625 C 47.285156 38.273438 39.953125 36.582031 32.617188 36.078125 C 24.472656 35.519531 23.984375 37.445312 20.367188 38.652344 C 16.746094 39.855469 18.671875 42.386719 18.671875 42.386719 C 18.671875 42.386719 18.988281 40.917969 20.738281 40.660156 C 22.492188 40.402344 25.191406 39.683594 25.191406 39.683594 C 25.59375 41.292969 28.207031 41.695312 30.792969 41.464844 C 33.378906 41.234375 33.808594 43.101562 33.808594 43.101562 C 33.808594 43.101562 34.730469 40.804688 31.855469 40.230469 C 28.984375 39.65625 28.152344 38.535156 28.152344 38.535156 C 36.078125 36.839844 51.132812 41.78125 52.855469 40.171875 C 54.105469 39.007812 54.929688 36.429688 55.289062 35.09375 C 56.628906 34.941406 58.015625 34.683594 59.453125 34.300781 C 61.261719 34.941406 65.203125 36.132812 69.058594 35.921875 C 74.285156 35.632812 84.855469 42.757812 88.074219 44.480469 C 91.292969 46.207031 93.101562 44.367188 97.210938 44.769531 C 101.316406 45.171875 100.828125 42.070312 100.828125 42.070312 C 100.828125 42.070312 99.277344 43.535156 96.894531 42.789062 C 94.507812 42.039062 92.699219 42.386719 92.699219 42.386719 C 92.699219 42.386719 91.75 40.71875 89.367188 39.339844 C 86.984375 37.960938 88.332031 36.292969 88.332031 36.292969 C 88.332031 36.292969 86.265625 37.671875 87.859375 39.269531 C 89.453125 40.863281 89.109375 42.027344 89.109375 42.027344 C 83.546875 39.6875 72.3125 32.125 69.285156 30.058594 C 70.132812 29.5625 70.996094 29.03125 71.871094 28.453125 L 67.953125 28.195312 C 67.953125 28.195312 69.632812 27.980469 74.457031 25.132812 L 97.09375 27.992188 L 92.671875 25.695312 L 102.839844 27.417969 L 100.371094 24.660156 L 109.734375 25.40625 L 107.320312 22.9375 L 114.101562 22.9375 L 119.902344 18.054688 L 109.503906 18.054688 L 115.363281 15.238281 L 74.6875 20.238281 C 74.6875 20.238281 61.300781 12.078125 32.691406 14.894531 C 32.691406 14.894531 28.839844 13.226562 27.519531 10.988281 C 27.519531 10.988281 29.644531 10.410156 31.65625 10.871094 C 31.65625 10.871094 29.585938 7.824219 26.3125 7.425781 C 26.3125 7.425781 28.4375 6.476562 30.292969 6.777344 C 30.292969 6.777344 28.824219 4.582031 25.550781 4.191406 C 25.550781 4.191406 26.542969 2.941406 28.652344 2.984375 C 28.652344 2.984375 26.371094 0.53125 21.929688 2.125 C 21.929688 2.125 21.929688 0.789062 24 0.359375 C 24 0.359375 20.378906 -0.203125 18.269531 2.125 C 18.269531 2.125 18.011719 1.101562 18.226562 0.296875 C 18.226562 0.296875 12.0625 2.898438 11.117188 8.804688 C 11.117188 8.804688 6.375 9.363281 0.558594 13.371094 C 0.558594 13.371094 14.535156 11.90625 24.070312 19.261719 " fill-opacity="1" fill-rule="nonzero"/></g><g fill="#e77d53" fill-opacity="1"><g transform="translate(12.585139, 10.700892)"><g><path d="M 2.546875 0.109375 C 2.191406 0.109375 1.863281 0.0507812 1.5625 -0.0625 C 1.257812 -0.1875 0.992188 -0.359375 0.765625 -0.578125 C 0.546875 -0.796875 0.375 -1.054688 0.25 -1.359375 C 0.132812 -1.660156 0.078125 -1.988281 0.078125 -2.34375 C 0.078125 -2.695312 0.132812 -3.019531 0.25 -3.3125 C 0.375 -3.613281 0.546875 -3.867188 0.765625 -4.078125 C 0.992188 -4.296875 1.257812 -4.460938 1.5625 -4.578125 C 1.863281 -4.703125 2.191406 -4.765625 2.546875 -4.765625 C 2.847656 -4.765625 3.144531 -4.710938 3.4375 -4.609375 C 3.726562 -4.515625 3.988281 -4.359375 4.21875 -4.140625 C 4.445312 -3.929688 4.625 -3.648438 4.75 -3.296875 L 3.984375 -3.015625 C 3.890625 -3.265625 3.757812 -3.457031 3.59375 -3.59375 C 3.4375 -3.726562 3.269531 -3.820312 3.09375 -3.875 C 2.914062 -3.925781 2.734375 -3.953125 2.546875 -3.953125 C 2.242188 -3.953125 1.976562 -3.882812 1.75 -3.75 C 1.519531 -3.613281 1.335938 -3.421875 1.203125 -3.171875 C 1.078125 -2.929688 1.015625 -2.65625 1.015625 -2.34375 C 1.015625 -2.019531 1.078125 -1.734375 1.203125 -1.484375 C 1.335938 -1.234375 1.519531 -1.035156 1.75 -0.890625 C 1.976562 -0.753906 2.242188 -0.6875 2.546875 -0.6875 C 2.734375 -0.6875 2.914062 -0.71875 3.09375 -0.78125 C 3.269531 -0.84375 3.4375 -0.941406 3.59375 -1.078125 C 3.757812 -1.222656 3.890625 -1.421875 3.984375 -1.671875 L 4.796875 -1.421875 C 4.640625 -1.046875 4.441406 -0.742188 4.203125 -0.515625 C 3.972656 -0.296875 3.71875 -0.132812 3.4375 -0.03125 C 3.15625 0.0625 2.859375 0.109375 2.546875 0.109375 Z M 2.546875 0.109375 "/></g></g></g></g></g></svg>